<mxfile host="app.diagrams.net" modified="2021-08-20T01:35:15.190Z" agent="5.0 (Windows NT 10.0; Win64; x64) AppleWebKit/537.36 (KHTML, like Gecko) Chrome/92.0.4515.159 Safari/537.36" etag="JoLzDoFOAU5xu3gCFuex" version="14.9.8" type="github">
  <diagram id="0CDY-tnlX_iTNDYCVQWq" name="Page-1">
    <mxGraphModel dx="3816" dy="2754" grid="1" gridSize="10" guides="1" tooltips="1" connect="1" arrows="1" fold="1" page="1" pageScale="1" pageWidth="850" pageHeight="1100" math="0" shadow="0">
      <root>
        <mxCell id="0" />
        <mxCell id="1" parent="0" />
        <mxCell id="GvnjWUw1k6gbX3_AqA5z-13" value="COUNTRIES" style="shape=table;startSize=30;container=1;collapsible=0;childLayout=tableLayout;fixedRows=1;rowLines=0;fontStyle=1;align=center;pointerEvents=1;" parent="1" vertex="1">
          <mxGeometry x="520" y="-480" width="180" height="150" as="geometry" />
        </mxCell>
        <mxCell id="GvnjWUw1k6gbX3_AqA5z-14" value="" style="shape=partialRectangle;html=1;whiteSpace=wrap;collapsible=0;dropTarget=0;pointerEvents=1;fillColor=none;top=0;left=0;bottom=1;right=0;points=[[0,0.5],[1,0.5]];portConstraint=eastwest;" parent="GvnjWUw1k6gbX3_AqA5z-13" vertex="1">
          <mxGeometry y="30" width="180" height="30" as="geometry" />
        </mxCell>
        <mxCell id="GvnjWUw1k6gbX3_AqA5z-15" value="PK" style="shape=partialRectangle;html=1;whiteSpace=wrap;connectable=0;fillColor=none;top=0;left=0;bottom=0;right=0;overflow=hidden;pointerEvents=1;" parent="GvnjWUw1k6gbX3_AqA5z-14" vertex="1">
          <mxGeometry width="40" height="30" as="geometry" />
        </mxCell>
        <mxCell id="GvnjWUw1k6gbX3_AqA5z-16" value="COUNRTY_ID" style="shape=partialRectangle;html=1;whiteSpace=wrap;connectable=0;fillColor=none;top=0;left=0;bottom=0;right=0;align=left;spacingLeft=6;overflow=hidden;pointerEvents=1;" parent="GvnjWUw1k6gbX3_AqA5z-14" vertex="1">
          <mxGeometry x="40" width="140" height="30" as="geometry" />
        </mxCell>
        <mxCell id="GvnjWUw1k6gbX3_AqA5z-17" value="" style="shape=partialRectangle;html=1;whiteSpace=wrap;collapsible=0;dropTarget=0;pointerEvents=1;fillColor=none;top=0;left=0;bottom=0;right=0;points=[[0,0.5],[1,0.5]];portConstraint=eastwest;" parent="GvnjWUw1k6gbX3_AqA5z-13" vertex="1">
          <mxGeometry y="60" width="180" height="30" as="geometry" />
        </mxCell>
        <mxCell id="GvnjWUw1k6gbX3_AqA5z-18" value="" style="shape=partialRectangle;html=1;whiteSpace=wrap;connectable=0;fillColor=none;top=0;left=0;bottom=0;right=0;overflow=hidden;pointerEvents=1;" parent="GvnjWUw1k6gbX3_AqA5z-17" vertex="1">
          <mxGeometry width="40" height="30" as="geometry" />
        </mxCell>
        <mxCell id="GvnjWUw1k6gbX3_AqA5z-19" value="COUNTRY_NAME" style="shape=partialRectangle;html=1;whiteSpace=wrap;connectable=0;fillColor=none;top=0;left=0;bottom=0;right=0;align=left;spacingLeft=6;overflow=hidden;pointerEvents=1;" parent="GvnjWUw1k6gbX3_AqA5z-17" vertex="1">
          <mxGeometry x="40" width="140" height="30" as="geometry" />
        </mxCell>
        <mxCell id="GvnjWUw1k6gbX3_AqA5z-20" value="" style="shape=partialRectangle;html=1;whiteSpace=wrap;collapsible=0;dropTarget=0;pointerEvents=1;fillColor=none;top=0;left=0;bottom=0;right=0;points=[[0,0.5],[1,0.5]];portConstraint=eastwest;" parent="GvnjWUw1k6gbX3_AqA5z-13" vertex="1">
          <mxGeometry y="90" width="180" height="30" as="geometry" />
        </mxCell>
        <mxCell id="GvnjWUw1k6gbX3_AqA5z-21" value="FK" style="shape=partialRectangle;html=1;whiteSpace=wrap;connectable=0;fillColor=none;top=0;left=0;bottom=0;right=0;overflow=hidden;pointerEvents=1;" parent="GvnjWUw1k6gbX3_AqA5z-20" vertex="1">
          <mxGeometry width="40" height="30" as="geometry" />
        </mxCell>
        <mxCell id="GvnjWUw1k6gbX3_AqA5z-22" value="" style="shape=partialRectangle;html=1;whiteSpace=wrap;connectable=0;fillColor=none;top=0;left=0;bottom=0;right=0;align=left;spacingLeft=6;overflow=hidden;pointerEvents=1;" parent="GvnjWUw1k6gbX3_AqA5z-20" vertex="1">
          <mxGeometry x="40" width="140" height="30" as="geometry" />
        </mxCell>
        <mxCell id="GvnjWUw1k6gbX3_AqA5z-33" value="REGION_ID" style="shape=partialRectangle;html=1;whiteSpace=wrap;connectable=0;fillColor=none;top=0;left=0;bottom=0;right=0;align=left;spacingLeft=6;overflow=hidden;pointerEvents=1;" parent="1" vertex="1">
          <mxGeometry x="560" y="-390" width="140" height="30" as="geometry" />
        </mxCell>
        <mxCell id="GvnjWUw1k6gbX3_AqA5z-36" value="LOCATIONS" style="shape=table;startSize=30;container=1;collapsible=0;childLayout=tableLayout;fixedRows=1;rowLines=0;fontStyle=1;align=center;pointerEvents=1;" parent="1" vertex="1">
          <mxGeometry x="80" y="-480" width="180" height="210" as="geometry" />
        </mxCell>
        <mxCell id="GvnjWUw1k6gbX3_AqA5z-37" value="" style="shape=partialRectangle;html=1;whiteSpace=wrap;collapsible=0;dropTarget=0;pointerEvents=1;fillColor=none;top=0;left=0;bottom=1;right=0;points=[[0,0.5],[1,0.5]];portConstraint=eastwest;" parent="GvnjWUw1k6gbX3_AqA5z-36" vertex="1">
          <mxGeometry y="30" width="180" height="30" as="geometry" />
        </mxCell>
        <mxCell id="GvnjWUw1k6gbX3_AqA5z-38" value="PK" style="shape=partialRectangle;html=1;whiteSpace=wrap;connectable=0;fillColor=none;top=0;left=0;bottom=0;right=0;overflow=hidden;pointerEvents=1;" parent="GvnjWUw1k6gbX3_AqA5z-37" vertex="1">
          <mxGeometry width="40" height="30" as="geometry" />
        </mxCell>
        <mxCell id="GvnjWUw1k6gbX3_AqA5z-39" value="LOCATION_ID" style="shape=partialRectangle;html=1;whiteSpace=wrap;connectable=0;fillColor=none;top=0;left=0;bottom=0;right=0;align=left;spacingLeft=6;overflow=hidden;pointerEvents=1;" parent="GvnjWUw1k6gbX3_AqA5z-37" vertex="1">
          <mxGeometry x="40" width="140" height="30" as="geometry" />
        </mxCell>
        <mxCell id="GvnjWUw1k6gbX3_AqA5z-40" value="" style="shape=partialRectangle;html=1;whiteSpace=wrap;collapsible=0;dropTarget=0;pointerEvents=1;fillColor=none;top=0;left=0;bottom=0;right=0;points=[[0,0.5],[1,0.5]];portConstraint=eastwest;" parent="GvnjWUw1k6gbX3_AqA5z-36" vertex="1">
          <mxGeometry y="60" width="180" height="30" as="geometry" />
        </mxCell>
        <mxCell id="GvnjWUw1k6gbX3_AqA5z-41" value="" style="shape=partialRectangle;html=1;whiteSpace=wrap;connectable=0;fillColor=none;top=0;left=0;bottom=0;right=0;overflow=hidden;pointerEvents=1;" parent="GvnjWUw1k6gbX3_AqA5z-40" vertex="1">
          <mxGeometry width="40" height="30" as="geometry" />
        </mxCell>
        <mxCell id="GvnjWUw1k6gbX3_AqA5z-42" value="ADDRESS" style="shape=partialRectangle;html=1;whiteSpace=wrap;connectable=0;fillColor=none;top=0;left=0;bottom=0;right=0;align=left;spacingLeft=6;overflow=hidden;pointerEvents=1;" parent="GvnjWUw1k6gbX3_AqA5z-40" vertex="1">
          <mxGeometry x="40" width="140" height="30" as="geometry" />
        </mxCell>
        <mxCell id="GvnjWUw1k6gbX3_AqA5z-43" value="" style="shape=partialRectangle;html=1;whiteSpace=wrap;collapsible=0;dropTarget=0;pointerEvents=1;fillColor=none;top=0;left=0;bottom=0;right=0;points=[[0,0.5],[1,0.5]];portConstraint=eastwest;" parent="GvnjWUw1k6gbX3_AqA5z-36" vertex="1">
          <mxGeometry y="90" width="180" height="30" as="geometry" />
        </mxCell>
        <mxCell id="GvnjWUw1k6gbX3_AqA5z-44" value="" style="shape=partialRectangle;html=1;whiteSpace=wrap;connectable=0;fillColor=none;top=0;left=0;bottom=0;right=0;overflow=hidden;pointerEvents=1;" parent="GvnjWUw1k6gbX3_AqA5z-43" vertex="1">
          <mxGeometry width="40" height="30" as="geometry" />
        </mxCell>
        <mxCell id="GvnjWUw1k6gbX3_AqA5z-45" value="" style="shape=partialRectangle;html=1;whiteSpace=wrap;connectable=0;fillColor=none;top=0;left=0;bottom=0;right=0;align=left;spacingLeft=6;overflow=hidden;pointerEvents=1;" parent="GvnjWUw1k6gbX3_AqA5z-43" vertex="1">
          <mxGeometry x="40" width="140" height="30" as="geometry" />
        </mxCell>
        <mxCell id="GvnjWUw1k6gbX3_AqA5z-46" value="POSTAL_CODE" style="shape=partialRectangle;html=1;whiteSpace=wrap;connectable=0;fillColor=none;top=0;left=0;bottom=0;right=0;align=left;spacingLeft=6;overflow=hidden;pointerEvents=1;" parent="1" vertex="1">
          <mxGeometry x="120" y="-390" width="140" height="30" as="geometry" />
        </mxCell>
        <mxCell id="GvnjWUw1k6gbX3_AqA5z-60" value="CITY" style="shape=partialRectangle;html=1;whiteSpace=wrap;connectable=0;fillColor=none;top=0;left=0;bottom=0;right=0;align=left;spacingLeft=6;overflow=hidden;pointerEvents=1;" parent="1" vertex="1">
          <mxGeometry x="120" y="-360" width="140" height="30" as="geometry" />
        </mxCell>
        <mxCell id="GvnjWUw1k6gbX3_AqA5z-62" value="STATE" style="shape=partialRectangle;html=1;whiteSpace=wrap;connectable=0;fillColor=none;top=0;left=0;bottom=0;right=0;align=left;spacingLeft=6;overflow=hidden;pointerEvents=1;" parent="1" vertex="1">
          <mxGeometry x="120" y="-330" width="140" height="30" as="geometry" />
        </mxCell>
        <mxCell id="GvnjWUw1k6gbX3_AqA5z-64" value="FK" style="shape=partialRectangle;html=1;whiteSpace=wrap;connectable=0;fillColor=none;top=0;left=0;bottom=0;right=0;overflow=hidden;pointerEvents=1;" parent="1" vertex="1">
          <mxGeometry x="80" y="-300" width="40" height="30" as="geometry" />
        </mxCell>
        <mxCell id="GvnjWUw1k6gbX3_AqA5z-65" value="COUNTRY_ID" style="shape=partialRectangle;html=1;whiteSpace=wrap;connectable=0;fillColor=none;top=0;left=0;bottom=0;right=0;align=left;spacingLeft=6;overflow=hidden;pointerEvents=1;" parent="1" vertex="1">
          <mxGeometry x="120" y="-300" width="140" height="30" as="geometry" />
        </mxCell>
        <mxCell id="GvnjWUw1k6gbX3_AqA5z-81" value="WAREHOUSES" style="shape=table;startSize=30;container=1;collapsible=0;childLayout=tableLayout;fixedRows=1;rowLines=0;fontStyle=1;align=center;pointerEvents=1;" parent="1" vertex="1">
          <mxGeometry x="-340" y="-480" width="180" height="150" as="geometry" />
        </mxCell>
        <mxCell id="GvnjWUw1k6gbX3_AqA5z-82" value="" style="shape=partialRectangle;html=1;whiteSpace=wrap;collapsible=0;dropTarget=0;pointerEvents=1;fillColor=none;top=0;left=0;bottom=1;right=0;points=[[0,0.5],[1,0.5]];portConstraint=eastwest;" parent="GvnjWUw1k6gbX3_AqA5z-81" vertex="1">
          <mxGeometry y="30" width="180" height="30" as="geometry" />
        </mxCell>
        <mxCell id="GvnjWUw1k6gbX3_AqA5z-83" value="PK" style="shape=partialRectangle;html=1;whiteSpace=wrap;connectable=0;fillColor=none;top=0;left=0;bottom=0;right=0;overflow=hidden;pointerEvents=1;" parent="GvnjWUw1k6gbX3_AqA5z-82" vertex="1">
          <mxGeometry width="40" height="30" as="geometry" />
        </mxCell>
        <mxCell id="GvnjWUw1k6gbX3_AqA5z-84" value="WAREHOUSES_ID" style="shape=partialRectangle;html=1;whiteSpace=wrap;connectable=0;fillColor=none;top=0;left=0;bottom=0;right=0;align=left;spacingLeft=6;overflow=hidden;pointerEvents=1;" parent="GvnjWUw1k6gbX3_AqA5z-82" vertex="1">
          <mxGeometry x="40" width="140" height="30" as="geometry" />
        </mxCell>
        <mxCell id="GvnjWUw1k6gbX3_AqA5z-85" value="" style="shape=partialRectangle;html=1;whiteSpace=wrap;collapsible=0;dropTarget=0;pointerEvents=1;fillColor=none;top=0;left=0;bottom=0;right=0;points=[[0,0.5],[1,0.5]];portConstraint=eastwest;" parent="GvnjWUw1k6gbX3_AqA5z-81" vertex="1">
          <mxGeometry y="60" width="180" height="30" as="geometry" />
        </mxCell>
        <mxCell id="GvnjWUw1k6gbX3_AqA5z-86" value="" style="shape=partialRectangle;html=1;whiteSpace=wrap;connectable=0;fillColor=none;top=0;left=0;bottom=0;right=0;overflow=hidden;pointerEvents=1;" parent="GvnjWUw1k6gbX3_AqA5z-85" vertex="1">
          <mxGeometry width="40" height="30" as="geometry" />
        </mxCell>
        <mxCell id="GvnjWUw1k6gbX3_AqA5z-87" value="WAREHOUSES_NAME" style="shape=partialRectangle;html=1;whiteSpace=wrap;connectable=0;fillColor=none;top=0;left=0;bottom=0;right=0;align=left;spacingLeft=6;overflow=hidden;pointerEvents=1;" parent="GvnjWUw1k6gbX3_AqA5z-85" vertex="1">
          <mxGeometry x="40" width="140" height="30" as="geometry" />
        </mxCell>
        <mxCell id="GvnjWUw1k6gbX3_AqA5z-88" value="" style="shape=partialRectangle;html=1;whiteSpace=wrap;collapsible=0;dropTarget=0;pointerEvents=1;fillColor=none;top=0;left=0;bottom=0;right=0;points=[[0,0.5],[1,0.5]];portConstraint=eastwest;" parent="GvnjWUw1k6gbX3_AqA5z-81" vertex="1">
          <mxGeometry y="90" width="180" height="30" as="geometry" />
        </mxCell>
        <mxCell id="GvnjWUw1k6gbX3_AqA5z-89" value="" style="shape=partialRectangle;html=1;whiteSpace=wrap;connectable=0;fillColor=none;top=0;left=0;bottom=0;right=0;overflow=hidden;pointerEvents=1;" parent="GvnjWUw1k6gbX3_AqA5z-88" vertex="1">
          <mxGeometry width="40" height="30" as="geometry" />
        </mxCell>
        <mxCell id="GvnjWUw1k6gbX3_AqA5z-90" value="" style="shape=partialRectangle;html=1;whiteSpace=wrap;connectable=0;fillColor=none;top=0;left=0;bottom=0;right=0;align=left;spacingLeft=6;overflow=hidden;pointerEvents=1;" parent="GvnjWUw1k6gbX3_AqA5z-88" vertex="1">
          <mxGeometry x="40" width="140" height="30" as="geometry" />
        </mxCell>
        <mxCell id="GvnjWUw1k6gbX3_AqA5z-91" value="LOCATION_ID" style="shape=partialRectangle;html=1;whiteSpace=wrap;connectable=0;fillColor=none;top=0;left=0;bottom=0;right=0;align=left;spacingLeft=6;overflow=hidden;pointerEvents=1;" parent="1" vertex="1">
          <mxGeometry x="-300" y="-390" width="140" height="30" as="geometry" />
        </mxCell>
        <mxCell id="GvnjWUw1k6gbX3_AqA5z-92" value="FK" style="shape=partialRectangle;html=1;whiteSpace=wrap;connectable=0;fillColor=none;top=0;left=0;bottom=0;right=0;overflow=hidden;pointerEvents=1;" parent="1" vertex="1">
          <mxGeometry x="-340" y="-390" width="40" height="30" as="geometry" />
        </mxCell>
        <mxCell id="GvnjWUw1k6gbX3_AqA5z-99" value="EMPLOYEES" style="shape=table;startSize=30;container=1;collapsible=0;childLayout=tableLayout;fixedRows=1;rowLines=0;fontStyle=1;align=center;pointerEvents=1;" parent="1" vertex="1">
          <mxGeometry x="-340" y="310" width="180" height="270" as="geometry" />
        </mxCell>
        <mxCell id="GvnjWUw1k6gbX3_AqA5z-100" value="" style="shape=partialRectangle;html=1;whiteSpace=wrap;collapsible=0;dropTarget=0;pointerEvents=1;fillColor=none;top=0;left=0;bottom=1;right=0;points=[[0,0.5],[1,0.5]];portConstraint=eastwest;" parent="GvnjWUw1k6gbX3_AqA5z-99" vertex="1">
          <mxGeometry y="30" width="180" height="30" as="geometry" />
        </mxCell>
        <mxCell id="GvnjWUw1k6gbX3_AqA5z-101" value="PK" style="shape=partialRectangle;html=1;whiteSpace=wrap;connectable=0;fillColor=none;top=0;left=0;bottom=0;right=0;overflow=hidden;pointerEvents=1;" parent="GvnjWUw1k6gbX3_AqA5z-100" vertex="1">
          <mxGeometry width="40" height="30" as="geometry" />
        </mxCell>
        <mxCell id="GvnjWUw1k6gbX3_AqA5z-102" value="EMPLOYEE_ID" style="shape=partialRectangle;html=1;whiteSpace=wrap;connectable=0;fillColor=none;top=0;left=0;bottom=0;right=0;align=left;spacingLeft=6;overflow=hidden;pointerEvents=1;" parent="GvnjWUw1k6gbX3_AqA5z-100" vertex="1">
          <mxGeometry x="40" width="140" height="30" as="geometry" />
        </mxCell>
        <mxCell id="GvnjWUw1k6gbX3_AqA5z-103" value="" style="shape=partialRectangle;html=1;whiteSpace=wrap;collapsible=0;dropTarget=0;pointerEvents=1;fillColor=none;top=0;left=0;bottom=0;right=0;points=[[0,0.5],[1,0.5]];portConstraint=eastwest;" parent="GvnjWUw1k6gbX3_AqA5z-99" vertex="1">
          <mxGeometry y="60" width="180" height="30" as="geometry" />
        </mxCell>
        <mxCell id="GvnjWUw1k6gbX3_AqA5z-104" value="" style="shape=partialRectangle;html=1;whiteSpace=wrap;connectable=0;fillColor=none;top=0;left=0;bottom=0;right=0;overflow=hidden;pointerEvents=1;" parent="GvnjWUw1k6gbX3_AqA5z-103" vertex="1">
          <mxGeometry width="40" height="30" as="geometry" />
        </mxCell>
        <mxCell id="GvnjWUw1k6gbX3_AqA5z-105" value="FIRST_NAME" style="shape=partialRectangle;html=1;whiteSpace=wrap;connectable=0;fillColor=none;top=0;left=0;bottom=0;right=0;align=left;spacingLeft=6;overflow=hidden;pointerEvents=1;" parent="GvnjWUw1k6gbX3_AqA5z-103" vertex="1">
          <mxGeometry x="40" width="140" height="30" as="geometry" />
        </mxCell>
        <mxCell id="GvnjWUw1k6gbX3_AqA5z-106" value="" style="shape=partialRectangle;html=1;whiteSpace=wrap;collapsible=0;dropTarget=0;pointerEvents=1;fillColor=none;top=0;left=0;bottom=0;right=0;points=[[0,0.5],[1,0.5]];portConstraint=eastwest;" parent="GvnjWUw1k6gbX3_AqA5z-99" vertex="1">
          <mxGeometry y="90" width="180" height="30" as="geometry" />
        </mxCell>
        <mxCell id="GvnjWUw1k6gbX3_AqA5z-107" value="" style="shape=partialRectangle;html=1;whiteSpace=wrap;connectable=0;fillColor=none;top=0;left=0;bottom=0;right=0;overflow=hidden;pointerEvents=1;" parent="GvnjWUw1k6gbX3_AqA5z-106" vertex="1">
          <mxGeometry width="40" height="30" as="geometry" />
        </mxCell>
        <mxCell id="GvnjWUw1k6gbX3_AqA5z-108" value="" style="shape=partialRectangle;html=1;whiteSpace=wrap;connectable=0;fillColor=none;top=0;left=0;bottom=0;right=0;align=left;spacingLeft=6;overflow=hidden;pointerEvents=1;" parent="GvnjWUw1k6gbX3_AqA5z-106" vertex="1">
          <mxGeometry x="40" width="140" height="30" as="geometry" />
        </mxCell>
        <mxCell id="GvnjWUw1k6gbX3_AqA5z-109" value="LAST_NAME" style="shape=partialRectangle;html=1;whiteSpace=wrap;connectable=0;fillColor=none;top=0;left=0;bottom=0;right=0;align=left;spacingLeft=6;overflow=hidden;pointerEvents=1;" parent="1" vertex="1">
          <mxGeometry x="-300" y="400" width="140" height="30" as="geometry" />
        </mxCell>
        <mxCell id="GvnjWUw1k6gbX3_AqA5z-110" value="" style="shape=partialRectangle;html=1;whiteSpace=wrap;connectable=0;fillColor=none;top=0;left=0;bottom=0;right=0;overflow=hidden;pointerEvents=1;" parent="1" vertex="1">
          <mxGeometry x="-340" y="400" width="40" height="30" as="geometry" />
        </mxCell>
        <mxCell id="GvnjWUw1k6gbX3_AqA5z-111" value="EMAIL" style="shape=partialRectangle;html=1;whiteSpace=wrap;connectable=0;fillColor=none;top=0;left=0;bottom=0;right=0;align=left;spacingLeft=6;overflow=hidden;pointerEvents=1;" parent="1" vertex="1">
          <mxGeometry x="-300" y="430" width="140" height="30" as="geometry" />
        </mxCell>
        <mxCell id="GvnjWUw1k6gbX3_AqA5z-112" value="PHONE" style="shape=partialRectangle;html=1;whiteSpace=wrap;connectable=0;fillColor=none;top=0;left=0;bottom=0;right=0;align=left;spacingLeft=6;overflow=hidden;pointerEvents=1;" parent="1" vertex="1">
          <mxGeometry x="-300" y="460" width="140" height="30" as="geometry" />
        </mxCell>
        <mxCell id="GvnjWUw1k6gbX3_AqA5z-113" value="HIRE_DATE" style="shape=partialRectangle;html=1;whiteSpace=wrap;connectable=0;fillColor=none;top=0;left=0;bottom=0;right=0;align=left;spacingLeft=6;overflow=hidden;pointerEvents=1;" parent="1" vertex="1">
          <mxGeometry x="-300" y="490" width="140" height="30" as="geometry" />
        </mxCell>
        <mxCell id="GvnjWUw1k6gbX3_AqA5z-114" value="MANAGER_ID" style="shape=partialRectangle;html=1;whiteSpace=wrap;connectable=0;fillColor=none;top=0;left=0;bottom=0;right=0;align=left;spacingLeft=6;overflow=hidden;pointerEvents=1;" parent="1" vertex="1">
          <mxGeometry x="-300" y="520" width="140" height="30" as="geometry" />
        </mxCell>
        <mxCell id="GvnjWUw1k6gbX3_AqA5z-115" value="JOB_TITLE" style="shape=partialRectangle;html=1;whiteSpace=wrap;connectable=0;fillColor=none;top=0;left=0;bottom=0;right=0;align=left;spacingLeft=6;overflow=hidden;pointerEvents=1;" parent="1" vertex="1">
          <mxGeometry x="-300" y="550" width="140" height="30" as="geometry" />
        </mxCell>
        <mxCell id="GvnjWUw1k6gbX3_AqA5z-133" value="PRODUCT_CATEGORIES" style="shape=table;startSize=30;container=1;collapsible=0;childLayout=tableLayout;fixedRows=1;rowLines=0;fontStyle=1;align=center;pointerEvents=1;" parent="1" vertex="1">
          <mxGeometry x="-340" y="70" width="180" height="180" as="geometry" />
        </mxCell>
        <mxCell id="GvnjWUw1k6gbX3_AqA5z-134" value="" style="shape=partialRectangle;html=1;whiteSpace=wrap;collapsible=0;dropTarget=0;pointerEvents=1;fillColor=none;top=0;left=0;bottom=1;right=0;points=[[0,0.5],[1,0.5]];portConstraint=eastwest;" parent="GvnjWUw1k6gbX3_AqA5z-133" vertex="1">
          <mxGeometry y="30" width="180" height="30" as="geometry" />
        </mxCell>
        <mxCell id="GvnjWUw1k6gbX3_AqA5z-135" value="PK" style="shape=partialRectangle;html=1;whiteSpace=wrap;connectable=0;fillColor=none;top=0;left=0;bottom=0;right=0;overflow=hidden;pointerEvents=1;" parent="GvnjWUw1k6gbX3_AqA5z-134" vertex="1">
          <mxGeometry width="40" height="30" as="geometry" />
        </mxCell>
        <mxCell id="GvnjWUw1k6gbX3_AqA5z-136" value="CATEGORY_ID" style="shape=partialRectangle;html=1;whiteSpace=wrap;connectable=0;fillColor=none;top=0;left=0;bottom=0;right=0;align=left;spacingLeft=6;overflow=hidden;pointerEvents=1;" parent="GvnjWUw1k6gbX3_AqA5z-134" vertex="1">
          <mxGeometry x="40" width="140" height="30" as="geometry" />
        </mxCell>
        <mxCell id="GvnjWUw1k6gbX3_AqA5z-137" value="" style="shape=partialRectangle;html=1;whiteSpace=wrap;collapsible=0;dropTarget=0;pointerEvents=1;fillColor=none;top=0;left=0;bottom=0;right=0;points=[[0,0.5],[1,0.5]];portConstraint=eastwest;" parent="GvnjWUw1k6gbX3_AqA5z-133" vertex="1">
          <mxGeometry y="60" width="180" height="30" as="geometry" />
        </mxCell>
        <mxCell id="GvnjWUw1k6gbX3_AqA5z-138" value="" style="shape=partialRectangle;html=1;whiteSpace=wrap;connectable=0;fillColor=none;top=0;left=0;bottom=0;right=0;overflow=hidden;pointerEvents=1;" parent="GvnjWUw1k6gbX3_AqA5z-137" vertex="1">
          <mxGeometry width="40" height="30" as="geometry" />
        </mxCell>
        <mxCell id="GvnjWUw1k6gbX3_AqA5z-139" value="CATEGORY_NAME" style="shape=partialRectangle;html=1;whiteSpace=wrap;connectable=0;fillColor=none;top=0;left=0;bottom=0;right=0;align=left;spacingLeft=6;overflow=hidden;pointerEvents=1;" parent="GvnjWUw1k6gbX3_AqA5z-137" vertex="1">
          <mxGeometry x="40" width="140" height="30" as="geometry" />
        </mxCell>
        <mxCell id="GvnjWUw1k6gbX3_AqA5z-140" value="" style="shape=partialRectangle;html=1;whiteSpace=wrap;collapsible=0;dropTarget=0;pointerEvents=1;fillColor=none;top=0;left=0;bottom=0;right=0;points=[[0,0.5],[1,0.5]];portConstraint=eastwest;" parent="GvnjWUw1k6gbX3_AqA5z-133" vertex="1">
          <mxGeometry y="90" width="180" height="30" as="geometry" />
        </mxCell>
        <mxCell id="GvnjWUw1k6gbX3_AqA5z-141" value="" style="shape=partialRectangle;html=1;whiteSpace=wrap;connectable=0;fillColor=none;top=0;left=0;bottom=0;right=0;overflow=hidden;pointerEvents=1;" parent="GvnjWUw1k6gbX3_AqA5z-140" vertex="1">
          <mxGeometry width="40" height="30" as="geometry" />
        </mxCell>
        <mxCell id="GvnjWUw1k6gbX3_AqA5z-142" value="" style="shape=partialRectangle;html=1;whiteSpace=wrap;connectable=0;fillColor=none;top=0;left=0;bottom=0;right=0;align=left;spacingLeft=6;overflow=hidden;pointerEvents=1;" parent="GvnjWUw1k6gbX3_AqA5z-140" vertex="1">
          <mxGeometry x="40" width="140" height="30" as="geometry" />
        </mxCell>
        <mxCell id="_RY1RrGFD_Ku-RANkwng-28" value="" style="shape=partialRectangle;html=1;whiteSpace=wrap;collapsible=0;dropTarget=0;pointerEvents=1;fillColor=none;top=0;left=0;bottom=0;right=0;points=[[0,0.5],[1,0.5]];portConstraint=eastwest;" parent="GvnjWUw1k6gbX3_AqA5z-133" vertex="1">
          <mxGeometry y="120" width="180" height="30" as="geometry" />
        </mxCell>
        <mxCell id="_RY1RrGFD_Ku-RANkwng-29" value="" style="shape=partialRectangle;html=1;whiteSpace=wrap;connectable=0;fillColor=none;top=0;left=0;bottom=0;right=0;overflow=hidden;pointerEvents=1;" parent="_RY1RrGFD_Ku-RANkwng-28" vertex="1">
          <mxGeometry width="40" height="30" as="geometry" />
        </mxCell>
        <mxCell id="_RY1RrGFD_Ku-RANkwng-30" value="" style="shape=partialRectangle;html=1;whiteSpace=wrap;connectable=0;fillColor=none;top=0;left=0;bottom=0;right=0;align=left;spacingLeft=6;overflow=hidden;pointerEvents=1;" parent="_RY1RrGFD_Ku-RANkwng-28" vertex="1">
          <mxGeometry x="40" width="140" height="30" as="geometry" />
        </mxCell>
        <mxCell id="GvnjWUw1k6gbX3_AqA5z-144" value="" style="shape=partialRectangle;html=1;whiteSpace=wrap;connectable=0;fillColor=none;top=0;left=0;bottom=0;right=0;overflow=hidden;pointerEvents=1;" parent="1" vertex="1">
          <mxGeometry x="300" y="160" width="40" height="30" as="geometry" />
        </mxCell>
        <mxCell id="GvnjWUw1k6gbX3_AqA5z-150" value="PRODUCTS" style="shape=table;startSize=30;container=1;collapsible=0;childLayout=tableLayout;fixedRows=1;rowLines=0;fontStyle=1;align=center;pointerEvents=1;" parent="1" vertex="1">
          <mxGeometry x="160" y="70" width="180" height="210" as="geometry" />
        </mxCell>
        <mxCell id="GvnjWUw1k6gbX3_AqA5z-151" value="" style="shape=partialRectangle;html=1;whiteSpace=wrap;collapsible=0;dropTarget=0;pointerEvents=1;fillColor=none;top=0;left=0;bottom=1;right=0;points=[[0,0.5],[1,0.5]];portConstraint=eastwest;" parent="GvnjWUw1k6gbX3_AqA5z-150" vertex="1">
          <mxGeometry y="30" width="180" height="30" as="geometry" />
        </mxCell>
        <mxCell id="GvnjWUw1k6gbX3_AqA5z-152" value="PK" style="shape=partialRectangle;html=1;whiteSpace=wrap;connectable=0;fillColor=none;top=0;left=0;bottom=0;right=0;overflow=hidden;pointerEvents=1;" parent="GvnjWUw1k6gbX3_AqA5z-151" vertex="1">
          <mxGeometry width="40" height="30" as="geometry" />
        </mxCell>
        <mxCell id="GvnjWUw1k6gbX3_AqA5z-153" value="PRODUCT_ID" style="shape=partialRectangle;html=1;whiteSpace=wrap;connectable=0;fillColor=none;top=0;left=0;bottom=0;right=0;align=left;spacingLeft=6;overflow=hidden;pointerEvents=1;" parent="GvnjWUw1k6gbX3_AqA5z-151" vertex="1">
          <mxGeometry x="40" width="140" height="30" as="geometry" />
        </mxCell>
        <mxCell id="GvnjWUw1k6gbX3_AqA5z-154" value="" style="shape=partialRectangle;html=1;whiteSpace=wrap;collapsible=0;dropTarget=0;pointerEvents=1;fillColor=none;top=0;left=0;bottom=0;right=0;points=[[0,0.5],[1,0.5]];portConstraint=eastwest;" parent="GvnjWUw1k6gbX3_AqA5z-150" vertex="1">
          <mxGeometry y="60" width="180" height="30" as="geometry" />
        </mxCell>
        <mxCell id="GvnjWUw1k6gbX3_AqA5z-155" value="" style="shape=partialRectangle;html=1;whiteSpace=wrap;connectable=0;fillColor=none;top=0;left=0;bottom=0;right=0;overflow=hidden;pointerEvents=1;" parent="GvnjWUw1k6gbX3_AqA5z-154" vertex="1">
          <mxGeometry width="40" height="30" as="geometry" />
        </mxCell>
        <mxCell id="GvnjWUw1k6gbX3_AqA5z-156" value="PRODUCT_NAME" style="shape=partialRectangle;html=1;whiteSpace=wrap;connectable=0;fillColor=none;top=0;left=0;bottom=0;right=0;align=left;spacingLeft=6;overflow=hidden;pointerEvents=1;" parent="GvnjWUw1k6gbX3_AqA5z-154" vertex="1">
          <mxGeometry x="40" width="140" height="30" as="geometry" />
        </mxCell>
        <mxCell id="GvnjWUw1k6gbX3_AqA5z-157" value="" style="shape=partialRectangle;html=1;whiteSpace=wrap;collapsible=0;dropTarget=0;pointerEvents=1;fillColor=none;top=0;left=0;bottom=0;right=0;points=[[0,0.5],[1,0.5]];portConstraint=eastwest;" parent="GvnjWUw1k6gbX3_AqA5z-150" vertex="1">
          <mxGeometry y="90" width="180" height="30" as="geometry" />
        </mxCell>
        <mxCell id="GvnjWUw1k6gbX3_AqA5z-158" value="" style="shape=partialRectangle;html=1;whiteSpace=wrap;connectable=0;fillColor=none;top=0;left=0;bottom=0;right=0;overflow=hidden;pointerEvents=1;" parent="GvnjWUw1k6gbX3_AqA5z-157" vertex="1">
          <mxGeometry width="40" height="30" as="geometry" />
        </mxCell>
        <mxCell id="GvnjWUw1k6gbX3_AqA5z-159" value="" style="shape=partialRectangle;html=1;whiteSpace=wrap;connectable=0;fillColor=none;top=0;left=0;bottom=0;right=0;align=left;spacingLeft=6;overflow=hidden;pointerEvents=1;" parent="GvnjWUw1k6gbX3_AqA5z-157" vertex="1">
          <mxGeometry x="40" width="140" height="30" as="geometry" />
        </mxCell>
        <mxCell id="GvnjWUw1k6gbX3_AqA5z-160" value="" style="shape=partialRectangle;html=1;whiteSpace=wrap;connectable=0;fillColor=none;top=0;left=0;bottom=0;right=0;overflow=hidden;pointerEvents=1;" parent="1" vertex="1">
          <mxGeometry x="160" y="160" width="40" height="30" as="geometry" />
        </mxCell>
        <mxCell id="GvnjWUw1k6gbX3_AqA5z-172" value="DESCRIPTION" style="shape=partialRectangle;html=1;whiteSpace=wrap;connectable=0;fillColor=none;top=0;left=0;bottom=0;right=0;align=left;spacingLeft=6;overflow=hidden;pointerEvents=1;" parent="1" vertex="1">
          <mxGeometry x="200" y="160" width="140" height="30" as="geometry" />
        </mxCell>
        <mxCell id="GvnjWUw1k6gbX3_AqA5z-173" value="STANDARD_COST" style="shape=partialRectangle;html=1;whiteSpace=wrap;connectable=0;fillColor=none;top=0;left=0;bottom=0;right=0;align=left;spacingLeft=6;overflow=hidden;pointerEvents=1;" parent="1" vertex="1">
          <mxGeometry x="200" y="190" width="140" height="30" as="geometry" />
        </mxCell>
        <mxCell id="GvnjWUw1k6gbX3_AqA5z-174" value="LIST_PRICE" style="shape=partialRectangle;html=1;whiteSpace=wrap;connectable=0;fillColor=none;top=0;left=0;bottom=0;right=0;align=left;spacingLeft=6;overflow=hidden;pointerEvents=1;" parent="1" vertex="1">
          <mxGeometry x="200" y="220" width="140" height="30" as="geometry" />
        </mxCell>
        <mxCell id="GvnjWUw1k6gbX3_AqA5z-175" value="CATEGORY_ID" style="shape=partialRectangle;html=1;whiteSpace=wrap;connectable=0;fillColor=none;top=0;left=0;bottom=0;right=0;align=left;spacingLeft=6;overflow=hidden;pointerEvents=1;" parent="1" vertex="1">
          <mxGeometry x="200" y="250" width="140" height="30" as="geometry" />
        </mxCell>
        <mxCell id="GvnjWUw1k6gbX3_AqA5z-176" value="FK" style="shape=partialRectangle;html=1;whiteSpace=wrap;connectable=0;fillColor=none;top=0;left=0;bottom=0;right=0;overflow=hidden;pointerEvents=1;" parent="1" vertex="1">
          <mxGeometry x="160" y="250" width="40" height="30" as="geometry" />
        </mxCell>
        <mxCell id="GvnjWUw1k6gbX3_AqA5z-197" value="CUSTOMERS" style="shape=table;startSize=30;container=1;collapsible=0;childLayout=tableLayout;fixedRows=1;rowLines=0;fontStyle=1;align=center;pointerEvents=1;" parent="1" vertex="1">
          <mxGeometry x="1520" y="70" width="180" height="180" as="geometry" />
        </mxCell>
        <mxCell id="GvnjWUw1k6gbX3_AqA5z-198" value="" style="shape=partialRectangle;html=1;whiteSpace=wrap;collapsible=0;dropTarget=0;pointerEvents=1;fillColor=none;top=0;left=0;bottom=1;right=0;points=[[0,0.5],[1,0.5]];portConstraint=eastwest;" parent="GvnjWUw1k6gbX3_AqA5z-197" vertex="1">
          <mxGeometry y="30" width="180" height="30" as="geometry" />
        </mxCell>
        <mxCell id="GvnjWUw1k6gbX3_AqA5z-199" value="PK" style="shape=partialRectangle;html=1;whiteSpace=wrap;connectable=0;fillColor=none;top=0;left=0;bottom=0;right=0;overflow=hidden;pointerEvents=1;" parent="GvnjWUw1k6gbX3_AqA5z-198" vertex="1">
          <mxGeometry width="40" height="30" as="geometry" />
        </mxCell>
        <mxCell id="GvnjWUw1k6gbX3_AqA5z-200" value="CUSTOMER_ID" style="shape=partialRectangle;html=1;whiteSpace=wrap;connectable=0;fillColor=none;top=0;left=0;bottom=0;right=0;align=left;spacingLeft=6;overflow=hidden;pointerEvents=1;" parent="GvnjWUw1k6gbX3_AqA5z-198" vertex="1">
          <mxGeometry x="40" width="140" height="30" as="geometry" />
        </mxCell>
        <mxCell id="GvnjWUw1k6gbX3_AqA5z-201" value="" style="shape=partialRectangle;html=1;whiteSpace=wrap;collapsible=0;dropTarget=0;pointerEvents=1;fillColor=none;top=0;left=0;bottom=0;right=0;points=[[0,0.5],[1,0.5]];portConstraint=eastwest;" parent="GvnjWUw1k6gbX3_AqA5z-197" vertex="1">
          <mxGeometry y="60" width="180" height="30" as="geometry" />
        </mxCell>
        <mxCell id="GvnjWUw1k6gbX3_AqA5z-202" value="" style="shape=partialRectangle;html=1;whiteSpace=wrap;connectable=0;fillColor=none;top=0;left=0;bottom=0;right=0;overflow=hidden;pointerEvents=1;" parent="GvnjWUw1k6gbX3_AqA5z-201" vertex="1">
          <mxGeometry width="40" height="30" as="geometry" />
        </mxCell>
        <mxCell id="GvnjWUw1k6gbX3_AqA5z-203" value="NAME" style="shape=partialRectangle;html=1;whiteSpace=wrap;connectable=0;fillColor=none;top=0;left=0;bottom=0;right=0;align=left;spacingLeft=6;overflow=hidden;pointerEvents=1;" parent="GvnjWUw1k6gbX3_AqA5z-201" vertex="1">
          <mxGeometry x="40" width="140" height="30" as="geometry" />
        </mxCell>
        <mxCell id="GvnjWUw1k6gbX3_AqA5z-204" value="" style="shape=partialRectangle;html=1;whiteSpace=wrap;collapsible=0;dropTarget=0;pointerEvents=1;fillColor=none;top=0;left=0;bottom=0;right=0;points=[[0,0.5],[1,0.5]];portConstraint=eastwest;" parent="GvnjWUw1k6gbX3_AqA5z-197" vertex="1">
          <mxGeometry y="90" width="180" height="30" as="geometry" />
        </mxCell>
        <mxCell id="GvnjWUw1k6gbX3_AqA5z-205" value="" style="shape=partialRectangle;html=1;whiteSpace=wrap;connectable=0;fillColor=none;top=0;left=0;bottom=0;right=0;overflow=hidden;pointerEvents=1;" parent="GvnjWUw1k6gbX3_AqA5z-204" vertex="1">
          <mxGeometry width="40" height="30" as="geometry" />
        </mxCell>
        <mxCell id="GvnjWUw1k6gbX3_AqA5z-206" value="" style="shape=partialRectangle;html=1;whiteSpace=wrap;connectable=0;fillColor=none;top=0;left=0;bottom=0;right=0;align=left;spacingLeft=6;overflow=hidden;pointerEvents=1;" parent="GvnjWUw1k6gbX3_AqA5z-204" vertex="1">
          <mxGeometry x="40" width="140" height="30" as="geometry" />
        </mxCell>
        <mxCell id="GvnjWUw1k6gbX3_AqA5z-207" value="" style="shape=partialRectangle;html=1;whiteSpace=wrap;connectable=0;fillColor=none;top=0;left=0;bottom=0;right=0;overflow=hidden;pointerEvents=1;" parent="1" vertex="1">
          <mxGeometry x="1520" y="160" width="40" height="30" as="geometry" />
        </mxCell>
        <mxCell id="GvnjWUw1k6gbX3_AqA5z-208" value="ADDRESS" style="shape=partialRectangle;html=1;whiteSpace=wrap;connectable=0;fillColor=none;top=0;left=0;bottom=0;right=0;align=left;spacingLeft=6;overflow=hidden;pointerEvents=1;" parent="1" vertex="1">
          <mxGeometry x="1560" y="160" width="140" height="30" as="geometry" />
        </mxCell>
        <mxCell id="GvnjWUw1k6gbX3_AqA5z-209" value="CREDIT_LIMIT" style="shape=partialRectangle;html=1;whiteSpace=wrap;connectable=0;fillColor=none;top=0;left=0;bottom=0;right=0;align=left;spacingLeft=6;overflow=hidden;pointerEvents=1;" parent="1" vertex="1">
          <mxGeometry x="1560" y="190" width="140" height="30" as="geometry" />
        </mxCell>
        <mxCell id="GvnjWUw1k6gbX3_AqA5z-210" value="WEBSITE" style="shape=partialRectangle;html=1;whiteSpace=wrap;connectable=0;fillColor=none;top=0;left=0;bottom=0;right=0;align=left;spacingLeft=6;overflow=hidden;pointerEvents=1;" parent="1" vertex="1">
          <mxGeometry x="1560" y="220" width="140" height="30" as="geometry" />
        </mxCell>
        <mxCell id="GvnjWUw1k6gbX3_AqA5z-213" value="CONTACTS" style="shape=table;startSize=30;container=1;collapsible=0;childLayout=tableLayout;fixedRows=1;rowLines=0;fontStyle=1;align=center;pointerEvents=1;" parent="1" vertex="1">
          <mxGeometry x="1970" y="70" width="180" height="210" as="geometry" />
        </mxCell>
        <mxCell id="GvnjWUw1k6gbX3_AqA5z-214" value="" style="shape=partialRectangle;html=1;whiteSpace=wrap;collapsible=0;dropTarget=0;pointerEvents=1;fillColor=none;top=0;left=0;bottom=1;right=0;points=[[0,0.5],[1,0.5]];portConstraint=eastwest;" parent="GvnjWUw1k6gbX3_AqA5z-213" vertex="1">
          <mxGeometry y="30" width="180" height="30" as="geometry" />
        </mxCell>
        <mxCell id="GvnjWUw1k6gbX3_AqA5z-215" value="PK" style="shape=partialRectangle;html=1;whiteSpace=wrap;connectable=0;fillColor=none;top=0;left=0;bottom=0;right=0;overflow=hidden;pointerEvents=1;" parent="GvnjWUw1k6gbX3_AqA5z-214" vertex="1">
          <mxGeometry width="40" height="30" as="geometry" />
        </mxCell>
        <mxCell id="GvnjWUw1k6gbX3_AqA5z-216" value="CONTACT_ID" style="shape=partialRectangle;html=1;whiteSpace=wrap;connectable=0;fillColor=none;top=0;left=0;bottom=0;right=0;align=left;spacingLeft=6;overflow=hidden;pointerEvents=1;" parent="GvnjWUw1k6gbX3_AqA5z-214" vertex="1">
          <mxGeometry x="40" width="140" height="30" as="geometry" />
        </mxCell>
        <mxCell id="GvnjWUw1k6gbX3_AqA5z-217" value="" style="shape=partialRectangle;html=1;whiteSpace=wrap;collapsible=0;dropTarget=0;pointerEvents=1;fillColor=none;top=0;left=0;bottom=0;right=0;points=[[0,0.5],[1,0.5]];portConstraint=eastwest;" parent="GvnjWUw1k6gbX3_AqA5z-213" vertex="1">
          <mxGeometry y="60" width="180" height="30" as="geometry" />
        </mxCell>
        <mxCell id="GvnjWUw1k6gbX3_AqA5z-218" value="" style="shape=partialRectangle;html=1;whiteSpace=wrap;connectable=0;fillColor=none;top=0;left=0;bottom=0;right=0;overflow=hidden;pointerEvents=1;" parent="GvnjWUw1k6gbX3_AqA5z-217" vertex="1">
          <mxGeometry width="40" height="30" as="geometry" />
        </mxCell>
        <mxCell id="GvnjWUw1k6gbX3_AqA5z-219" value="FIRST_NAME" style="shape=partialRectangle;html=1;whiteSpace=wrap;connectable=0;fillColor=none;top=0;left=0;bottom=0;right=0;align=left;spacingLeft=6;overflow=hidden;pointerEvents=1;" parent="GvnjWUw1k6gbX3_AqA5z-217" vertex="1">
          <mxGeometry x="40" width="140" height="30" as="geometry" />
        </mxCell>
        <mxCell id="GvnjWUw1k6gbX3_AqA5z-220" value="" style="shape=partialRectangle;html=1;whiteSpace=wrap;collapsible=0;dropTarget=0;pointerEvents=1;fillColor=none;top=0;left=0;bottom=0;right=0;points=[[0,0.5],[1,0.5]];portConstraint=eastwest;" parent="GvnjWUw1k6gbX3_AqA5z-213" vertex="1">
          <mxGeometry y="90" width="180" height="30" as="geometry" />
        </mxCell>
        <mxCell id="GvnjWUw1k6gbX3_AqA5z-221" value="" style="shape=partialRectangle;html=1;whiteSpace=wrap;connectable=0;fillColor=none;top=0;left=0;bottom=0;right=0;overflow=hidden;pointerEvents=1;" parent="GvnjWUw1k6gbX3_AqA5z-220" vertex="1">
          <mxGeometry width="40" height="30" as="geometry" />
        </mxCell>
        <mxCell id="GvnjWUw1k6gbX3_AqA5z-222" value="" style="shape=partialRectangle;html=1;whiteSpace=wrap;connectable=0;fillColor=none;top=0;left=0;bottom=0;right=0;align=left;spacingLeft=6;overflow=hidden;pointerEvents=1;" parent="GvnjWUw1k6gbX3_AqA5z-220" vertex="1">
          <mxGeometry x="40" width="140" height="30" as="geometry" />
        </mxCell>
        <mxCell id="GvnjWUw1k6gbX3_AqA5z-223" value="" style="shape=partialRectangle;html=1;whiteSpace=wrap;connectable=0;fillColor=none;top=0;left=0;bottom=0;right=0;overflow=hidden;pointerEvents=1;" parent="1" vertex="1">
          <mxGeometry x="1740" y="160" width="40" height="30" as="geometry" />
        </mxCell>
        <mxCell id="GvnjWUw1k6gbX3_AqA5z-224" value="LAST_NAME" style="shape=partialRectangle;html=1;whiteSpace=wrap;connectable=0;fillColor=none;top=0;left=0;bottom=0;right=0;align=left;spacingLeft=6;overflow=hidden;pointerEvents=1;" parent="1" vertex="1">
          <mxGeometry x="2010" y="160" width="140" height="30" as="geometry" />
        </mxCell>
        <mxCell id="GvnjWUw1k6gbX3_AqA5z-225" value="EMAIL" style="shape=partialRectangle;html=1;whiteSpace=wrap;connectable=0;fillColor=none;top=0;left=0;bottom=0;right=0;align=left;spacingLeft=6;overflow=hidden;pointerEvents=1;" parent="1" vertex="1">
          <mxGeometry x="2010" y="190" width="140" height="30" as="geometry" />
        </mxCell>
        <mxCell id="GvnjWUw1k6gbX3_AqA5z-226" value="PHONE" style="shape=partialRectangle;html=1;whiteSpace=wrap;connectable=0;fillColor=none;top=0;left=0;bottom=0;right=0;align=left;spacingLeft=6;overflow=hidden;pointerEvents=1;" parent="1" vertex="1">
          <mxGeometry x="2010" y="220" width="140" height="30" as="geometry" />
        </mxCell>
        <mxCell id="GvnjWUw1k6gbX3_AqA5z-227" value="CUSTOMER_ID" style="shape=partialRectangle;html=1;whiteSpace=wrap;connectable=0;fillColor=none;top=0;left=0;bottom=0;right=0;align=left;spacingLeft=6;overflow=hidden;pointerEvents=1;" parent="1" vertex="1">
          <mxGeometry x="2010" y="250" width="140" height="30" as="geometry" />
        </mxCell>
        <mxCell id="GvnjWUw1k6gbX3_AqA5z-243" value="ORDERS" style="shape=table;startSize=30;container=1;collapsible=0;childLayout=tableLayout;fixedRows=1;rowLines=0;fontStyle=1;align=center;pointerEvents=1;" parent="1" vertex="1">
          <mxGeometry x="1070" y="70" width="180" height="180" as="geometry" />
        </mxCell>
        <mxCell id="GvnjWUw1k6gbX3_AqA5z-244" value="" style="shape=partialRectangle;html=1;whiteSpace=wrap;collapsible=0;dropTarget=0;pointerEvents=1;fillColor=none;top=0;left=0;bottom=1;right=0;points=[[0,0.5],[1,0.5]];portConstraint=eastwest;" parent="GvnjWUw1k6gbX3_AqA5z-243" vertex="1">
          <mxGeometry y="30" width="180" height="30" as="geometry" />
        </mxCell>
        <mxCell id="GvnjWUw1k6gbX3_AqA5z-245" value="PK" style="shape=partialRectangle;html=1;whiteSpace=wrap;connectable=0;fillColor=none;top=0;left=0;bottom=0;right=0;overflow=hidden;pointerEvents=1;" parent="GvnjWUw1k6gbX3_AqA5z-244" vertex="1">
          <mxGeometry width="40" height="30" as="geometry" />
        </mxCell>
        <mxCell id="GvnjWUw1k6gbX3_AqA5z-246" value="ORDER_ID" style="shape=partialRectangle;html=1;whiteSpace=wrap;connectable=0;fillColor=none;top=0;left=0;bottom=0;right=0;align=left;spacingLeft=6;overflow=hidden;pointerEvents=1;" parent="GvnjWUw1k6gbX3_AqA5z-244" vertex="1">
          <mxGeometry x="40" width="140" height="30" as="geometry" />
        </mxCell>
        <mxCell id="GvnjWUw1k6gbX3_AqA5z-247" value="" style="shape=partialRectangle;html=1;whiteSpace=wrap;collapsible=0;dropTarget=0;pointerEvents=1;fillColor=none;top=0;left=0;bottom=0;right=0;points=[[0,0.5],[1,0.5]];portConstraint=eastwest;" parent="GvnjWUw1k6gbX3_AqA5z-243" vertex="1">
          <mxGeometry y="60" width="180" height="30" as="geometry" />
        </mxCell>
        <mxCell id="GvnjWUw1k6gbX3_AqA5z-248" value="" style="shape=partialRectangle;html=1;whiteSpace=wrap;connectable=0;fillColor=none;top=0;left=0;bottom=0;right=0;overflow=hidden;pointerEvents=1;" parent="GvnjWUw1k6gbX3_AqA5z-247" vertex="1">
          <mxGeometry width="40" height="30" as="geometry" />
        </mxCell>
        <mxCell id="GvnjWUw1k6gbX3_AqA5z-249" value="CUSTOMER_ID" style="shape=partialRectangle;html=1;whiteSpace=wrap;connectable=0;fillColor=none;top=0;left=0;bottom=0;right=0;align=left;spacingLeft=6;overflow=hidden;pointerEvents=1;" parent="GvnjWUw1k6gbX3_AqA5z-247" vertex="1">
          <mxGeometry x="40" width="140" height="30" as="geometry" />
        </mxCell>
        <mxCell id="GvnjWUw1k6gbX3_AqA5z-250" value="" style="shape=partialRectangle;html=1;whiteSpace=wrap;collapsible=0;dropTarget=0;pointerEvents=1;fillColor=none;top=0;left=0;bottom=0;right=0;points=[[0,0.5],[1,0.5]];portConstraint=eastwest;" parent="GvnjWUw1k6gbX3_AqA5z-243" vertex="1">
          <mxGeometry y="90" width="180" height="30" as="geometry" />
        </mxCell>
        <mxCell id="GvnjWUw1k6gbX3_AqA5z-251" value="" style="shape=partialRectangle;html=1;whiteSpace=wrap;connectable=0;fillColor=none;top=0;left=0;bottom=0;right=0;overflow=hidden;pointerEvents=1;" parent="GvnjWUw1k6gbX3_AqA5z-250" vertex="1">
          <mxGeometry width="40" height="30" as="geometry" />
        </mxCell>
        <mxCell id="GvnjWUw1k6gbX3_AqA5z-252" value="" style="shape=partialRectangle;html=1;whiteSpace=wrap;connectable=0;fillColor=none;top=0;left=0;bottom=0;right=0;align=left;spacingLeft=6;overflow=hidden;pointerEvents=1;" parent="GvnjWUw1k6gbX3_AqA5z-250" vertex="1">
          <mxGeometry x="40" width="140" height="30" as="geometry" />
        </mxCell>
        <mxCell id="GvnjWUw1k6gbX3_AqA5z-253" value="" style="shape=partialRectangle;html=1;whiteSpace=wrap;connectable=0;fillColor=none;top=0;left=0;bottom=0;right=0;overflow=hidden;pointerEvents=1;" parent="1" vertex="1">
          <mxGeometry x="1070" y="160" width="40" height="30" as="geometry" />
        </mxCell>
        <mxCell id="GvnjWUw1k6gbX3_AqA5z-254" value="STATUS" style="shape=partialRectangle;html=1;whiteSpace=wrap;connectable=0;fillColor=none;top=0;left=0;bottom=0;right=0;align=left;spacingLeft=6;overflow=hidden;pointerEvents=1;" parent="1" vertex="1">
          <mxGeometry x="1110" y="160" width="140" height="30" as="geometry" />
        </mxCell>
        <mxCell id="GvnjWUw1k6gbX3_AqA5z-255" value="SALESMAN_ID" style="shape=partialRectangle;html=1;whiteSpace=wrap;connectable=0;fillColor=none;top=0;left=0;bottom=0;right=0;align=left;spacingLeft=6;overflow=hidden;pointerEvents=1;" parent="1" vertex="1">
          <mxGeometry x="1110" y="190" width="140" height="30" as="geometry" />
        </mxCell>
        <mxCell id="GvnjWUw1k6gbX3_AqA5z-256" value="ORDER_DATE" style="shape=partialRectangle;html=1;whiteSpace=wrap;connectable=0;fillColor=none;top=0;left=0;bottom=0;right=0;align=left;spacingLeft=6;overflow=hidden;pointerEvents=1;" parent="1" vertex="1">
          <mxGeometry x="1110" y="220" width="140" height="30" as="geometry" />
        </mxCell>
        <mxCell id="GvnjWUw1k6gbX3_AqA5z-258" value="FK" style="shape=partialRectangle;html=1;whiteSpace=wrap;connectable=0;fillColor=none;top=0;left=0;bottom=0;right=0;overflow=hidden;pointerEvents=1;" parent="1" vertex="1">
          <mxGeometry x="1070" y="130" width="40" height="30" as="geometry" />
        </mxCell>
        <mxCell id="GvnjWUw1k6gbX3_AqA5z-259" value="ORDER_ITEMS" style="shape=table;startSize=30;container=1;collapsible=0;childLayout=tableLayout;fixedRows=1;rowLines=0;fontStyle=1;align=center;pointerEvents=1;" parent="1" vertex="1">
          <mxGeometry x="610" y="70" width="180" height="180" as="geometry" />
        </mxCell>
        <mxCell id="GvnjWUw1k6gbX3_AqA5z-260" value="" style="shape=partialRectangle;html=1;whiteSpace=wrap;collapsible=0;dropTarget=0;pointerEvents=1;fillColor=none;top=0;left=0;bottom=1;right=0;points=[[0,0.5],[1,0.5]];portConstraint=eastwest;" parent="GvnjWUw1k6gbX3_AqA5z-259" vertex="1">
          <mxGeometry y="30" width="180" height="30" as="geometry" />
        </mxCell>
        <mxCell id="GvnjWUw1k6gbX3_AqA5z-261" value="FK" style="shape=partialRectangle;html=1;whiteSpace=wrap;connectable=0;fillColor=none;top=0;left=0;bottom=0;right=0;overflow=hidden;pointerEvents=1;" parent="GvnjWUw1k6gbX3_AqA5z-260" vertex="1">
          <mxGeometry width="40" height="30" as="geometry" />
        </mxCell>
        <mxCell id="GvnjWUw1k6gbX3_AqA5z-262" value="ORDER_ID" style="shape=partialRectangle;html=1;whiteSpace=wrap;connectable=0;fillColor=none;top=0;left=0;bottom=0;right=0;align=left;spacingLeft=6;overflow=hidden;pointerEvents=1;" parent="GvnjWUw1k6gbX3_AqA5z-260" vertex="1">
          <mxGeometry x="40" width="140" height="30" as="geometry" />
        </mxCell>
        <mxCell id="GvnjWUw1k6gbX3_AqA5z-263" value="" style="shape=partialRectangle;html=1;whiteSpace=wrap;collapsible=0;dropTarget=0;pointerEvents=1;fillColor=none;top=0;left=0;bottom=0;right=0;points=[[0,0.5],[1,0.5]];portConstraint=eastwest;" parent="GvnjWUw1k6gbX3_AqA5z-259" vertex="1">
          <mxGeometry y="60" width="180" height="30" as="geometry" />
        </mxCell>
        <mxCell id="GvnjWUw1k6gbX3_AqA5z-264" value="" style="shape=partialRectangle;html=1;whiteSpace=wrap;connectable=0;fillColor=none;top=0;left=0;bottom=0;right=0;overflow=hidden;pointerEvents=1;" parent="GvnjWUw1k6gbX3_AqA5z-263" vertex="1">
          <mxGeometry width="40" height="30" as="geometry" />
        </mxCell>
        <mxCell id="GvnjWUw1k6gbX3_AqA5z-265" value="ITEM_ID" style="shape=partialRectangle;html=1;whiteSpace=wrap;connectable=0;fillColor=none;top=0;left=0;bottom=0;right=0;align=left;spacingLeft=6;overflow=hidden;pointerEvents=1;" parent="GvnjWUw1k6gbX3_AqA5z-263" vertex="1">
          <mxGeometry x="40" width="140" height="30" as="geometry" />
        </mxCell>
        <mxCell id="GvnjWUw1k6gbX3_AqA5z-266" value="" style="shape=partialRectangle;html=1;whiteSpace=wrap;collapsible=0;dropTarget=0;pointerEvents=1;fillColor=none;top=0;left=0;bottom=0;right=0;points=[[0,0.5],[1,0.5]];portConstraint=eastwest;" parent="GvnjWUw1k6gbX3_AqA5z-259" vertex="1">
          <mxGeometry y="90" width="180" height="30" as="geometry" />
        </mxCell>
        <mxCell id="GvnjWUw1k6gbX3_AqA5z-267" value="" style="shape=partialRectangle;html=1;whiteSpace=wrap;connectable=0;fillColor=none;top=0;left=0;bottom=0;right=0;overflow=hidden;pointerEvents=1;" parent="GvnjWUw1k6gbX3_AqA5z-266" vertex="1">
          <mxGeometry width="40" height="30" as="geometry" />
        </mxCell>
        <mxCell id="GvnjWUw1k6gbX3_AqA5z-268" value="" style="shape=partialRectangle;html=1;whiteSpace=wrap;connectable=0;fillColor=none;top=0;left=0;bottom=0;right=0;align=left;spacingLeft=6;overflow=hidden;pointerEvents=1;" parent="GvnjWUw1k6gbX3_AqA5z-266" vertex="1">
          <mxGeometry x="40" width="140" height="30" as="geometry" />
        </mxCell>
        <mxCell id="GvnjWUw1k6gbX3_AqA5z-269" value="FK" style="shape=partialRectangle;html=1;whiteSpace=wrap;connectable=0;fillColor=none;top=0;left=0;bottom=0;right=0;overflow=hidden;pointerEvents=1;" parent="1" vertex="1">
          <mxGeometry x="610" y="160" width="40" height="30" as="geometry" />
        </mxCell>
        <mxCell id="GvnjWUw1k6gbX3_AqA5z-270" value="PRODUCT_ID" style="shape=partialRectangle;html=1;whiteSpace=wrap;connectable=0;fillColor=none;top=0;left=0;bottom=0;right=0;align=left;spacingLeft=6;overflow=hidden;pointerEvents=1;" parent="1" vertex="1">
          <mxGeometry x="650" y="160" width="140" height="30" as="geometry" />
        </mxCell>
        <mxCell id="GvnjWUw1k6gbX3_AqA5z-271" value="QUANTITY" style="shape=partialRectangle;html=1;whiteSpace=wrap;connectable=0;fillColor=none;top=0;left=0;bottom=0;right=0;align=left;spacingLeft=6;overflow=hidden;pointerEvents=1;" parent="1" vertex="1">
          <mxGeometry x="650" y="190" width="140" height="30" as="geometry" />
        </mxCell>
        <mxCell id="GvnjWUw1k6gbX3_AqA5z-272" value="UNIT_PRICE" style="shape=partialRectangle;html=1;whiteSpace=wrap;connectable=0;fillColor=none;top=0;left=0;bottom=0;right=0;align=left;spacingLeft=6;overflow=hidden;pointerEvents=1;" parent="1" vertex="1">
          <mxGeometry x="650" y="220" width="140" height="30" as="geometry" />
        </mxCell>
        <mxCell id="GvnjWUw1k6gbX3_AqA5z-297" value="INVENTORIES" style="shape=table;startSize=30;container=1;collapsible=0;childLayout=tableLayout;fixedRows=1;rowLines=0;fontStyle=1;align=center;pointerEvents=1;" parent="1" vertex="1">
          <mxGeometry x="160" y="-150" width="180" height="180" as="geometry" />
        </mxCell>
        <mxCell id="GvnjWUw1k6gbX3_AqA5z-298" value="" style="shape=partialRectangle;html=1;whiteSpace=wrap;collapsible=0;dropTarget=0;pointerEvents=1;fillColor=none;top=0;left=0;bottom=1;right=0;points=[[0,0.5],[1,0.5]];portConstraint=eastwest;" parent="GvnjWUw1k6gbX3_AqA5z-297" vertex="1">
          <mxGeometry y="30" width="180" height="30" as="geometry" />
        </mxCell>
        <mxCell id="GvnjWUw1k6gbX3_AqA5z-299" value="FK" style="shape=partialRectangle;html=1;whiteSpace=wrap;connectable=0;fillColor=none;top=0;left=0;bottom=0;right=0;overflow=hidden;pointerEvents=1;" parent="GvnjWUw1k6gbX3_AqA5z-298" vertex="1">
          <mxGeometry width="40" height="30" as="geometry" />
        </mxCell>
        <mxCell id="GvnjWUw1k6gbX3_AqA5z-300" value="PRODUCT_ID" style="shape=partialRectangle;html=1;whiteSpace=wrap;connectable=0;fillColor=none;top=0;left=0;bottom=0;right=0;align=left;spacingLeft=6;overflow=hidden;pointerEvents=1;" parent="GvnjWUw1k6gbX3_AqA5z-298" vertex="1">
          <mxGeometry x="40" width="140" height="30" as="geometry" />
        </mxCell>
        <mxCell id="GvnjWUw1k6gbX3_AqA5z-301" value="" style="shape=partialRectangle;html=1;whiteSpace=wrap;collapsible=0;dropTarget=0;pointerEvents=1;fillColor=none;top=0;left=0;bottom=0;right=0;points=[[0,0.5],[1,0.5]];portConstraint=eastwest;" parent="GvnjWUw1k6gbX3_AqA5z-297" vertex="1">
          <mxGeometry y="60" width="180" height="30" as="geometry" />
        </mxCell>
        <mxCell id="GvnjWUw1k6gbX3_AqA5z-302" value="" style="shape=partialRectangle;html=1;whiteSpace=wrap;connectable=0;fillColor=none;top=0;left=0;bottom=0;right=0;overflow=hidden;pointerEvents=1;" parent="GvnjWUw1k6gbX3_AqA5z-301" vertex="1">
          <mxGeometry width="40" height="30" as="geometry" />
        </mxCell>
        <mxCell id="GvnjWUw1k6gbX3_AqA5z-303" value="WAREHOUSE_ID" style="shape=partialRectangle;html=1;whiteSpace=wrap;connectable=0;fillColor=none;top=0;left=0;bottom=0;right=0;align=left;spacingLeft=6;overflow=hidden;pointerEvents=1;" parent="GvnjWUw1k6gbX3_AqA5z-301" vertex="1">
          <mxGeometry x="40" width="140" height="30" as="geometry" />
        </mxCell>
        <mxCell id="GvnjWUw1k6gbX3_AqA5z-304" value="" style="shape=partialRectangle;html=1;whiteSpace=wrap;collapsible=0;dropTarget=0;pointerEvents=1;fillColor=none;top=0;left=0;bottom=0;right=0;points=[[0,0.5],[1,0.5]];portConstraint=eastwest;" parent="GvnjWUw1k6gbX3_AqA5z-297" vertex="1">
          <mxGeometry y="90" width="180" height="30" as="geometry" />
        </mxCell>
        <mxCell id="GvnjWUw1k6gbX3_AqA5z-305" value="" style="shape=partialRectangle;html=1;whiteSpace=wrap;connectable=0;fillColor=none;top=0;left=0;bottom=0;right=0;overflow=hidden;pointerEvents=1;" parent="GvnjWUw1k6gbX3_AqA5z-304" vertex="1">
          <mxGeometry width="40" height="30" as="geometry" />
        </mxCell>
        <mxCell id="GvnjWUw1k6gbX3_AqA5z-306" value="" style="shape=partialRectangle;html=1;whiteSpace=wrap;connectable=0;fillColor=none;top=0;left=0;bottom=0;right=0;align=left;spacingLeft=6;overflow=hidden;pointerEvents=1;" parent="GvnjWUw1k6gbX3_AqA5z-304" vertex="1">
          <mxGeometry x="40" width="140" height="30" as="geometry" />
        </mxCell>
        <mxCell id="GvnjWUw1k6gbX3_AqA5z-307" value="" style="shape=partialRectangle;html=1;whiteSpace=wrap;connectable=0;fillColor=none;top=0;left=0;bottom=0;right=0;overflow=hidden;pointerEvents=1;" parent="1" vertex="1">
          <mxGeometry x="160" y="-60" width="40" height="30" as="geometry" />
        </mxCell>
        <mxCell id="GvnjWUw1k6gbX3_AqA5z-308" value="QUANTITY" style="shape=partialRectangle;html=1;whiteSpace=wrap;connectable=0;fillColor=none;top=0;left=0;bottom=0;right=0;align=left;spacingLeft=6;overflow=hidden;pointerEvents=1;" parent="1" vertex="1">
          <mxGeometry x="200" y="-60" width="140" height="30" as="geometry" />
        </mxCell>
        <mxCell id="GvnjWUw1k6gbX3_AqA5z-309" value="QUANTITY" style="shape=partialRectangle;html=1;whiteSpace=wrap;connectable=0;fillColor=none;top=0;left=0;bottom=0;right=0;align=left;spacingLeft=6;overflow=hidden;pointerEvents=1;" parent="1" vertex="1">
          <mxGeometry x="200" y="-30" width="140" height="30" as="geometry" />
        </mxCell>
        <mxCell id="GvnjWUw1k6gbX3_AqA5z-310" value="UNIT_PRICE" style="shape=partialRectangle;html=1;whiteSpace=wrap;connectable=0;fillColor=none;top=0;left=0;bottom=0;right=0;align=left;spacingLeft=6;overflow=hidden;pointerEvents=1;" parent="1" vertex="1">
          <mxGeometry x="200" width="140" height="30" as="geometry" />
        </mxCell>
        <mxCell id="GvnjWUw1k6gbX3_AqA5z-317" value="FK" style="shape=partialRectangle;html=1;whiteSpace=wrap;connectable=0;fillColor=none;top=0;left=0;bottom=0;right=0;overflow=hidden;pointerEvents=1;" parent="1" vertex="1">
          <mxGeometry x="1970" y="250" width="40" height="30" as="geometry" />
        </mxCell>
        <mxCell id="_RY1RrGFD_Ku-RANkwng-3" value="" style="edgeStyle=entityRelationEdgeStyle;fontSize=12;html=1;endArrow=ERmandOne;startArrow=ERmandOne;entryX=0;entryY=0.5;entryDx=0;entryDy=0;exitX=1;exitY=0.75;exitDx=0;exitDy=0;" parent="1" source="GvnjWUw1k6gbX3_AqA5z-81" target="GvnjWUw1k6gbX3_AqA5z-37" edge="1">
          <mxGeometry width="100" height="100" relative="1" as="geometry">
            <mxPoint x="-40" y="-370" as="sourcePoint" />
            <mxPoint x="20" y="-290" as="targetPoint" />
          </mxGeometry>
        </mxCell>
        <mxCell id="_RY1RrGFD_Ku-RANkwng-4" value="one-to-one&lt;br&gt;A WAREHOUSE has ONE LOCATION&lt;br&gt;ONE LOCATION contains ONE WAREHOUSE" style="edgeLabel;html=1;align=center;verticalAlign=middle;resizable=0;points=[];" parent="_RY1RrGFD_Ku-RANkwng-3" vertex="1" connectable="0">
          <mxGeometry x="-0.2248" y="5" relative="1" as="geometry">
            <mxPoint x="28" y="-19" as="offset" />
          </mxGeometry>
        </mxCell>
        <mxCell id="_RY1RrGFD_Ku-RANkwng-12" value="" style="edgeStyle=entityRelationEdgeStyle;fontSize=12;html=1;endArrow=ERoneToMany;entryX=0;entryY=0.5;entryDx=0;entryDy=0;" parent="1" target="GvnjWUw1k6gbX3_AqA5z-14" edge="1">
          <mxGeometry width="100" height="100" relative="1" as="geometry">
            <mxPoint x="260" y="-280" as="sourcePoint" />
            <mxPoint x="360" y="-380" as="targetPoint" />
          </mxGeometry>
        </mxCell>
        <mxCell id="_RY1RrGFD_Ku-RANkwng-13" value="one-to-many&lt;br&gt;MANY LOCATIONS are placed in ONE COUNTRY&lt;br&gt;ONE COUNTRY contains MANY LOCATIONS&amp;nbsp;" style="edgeLabel;html=1;align=center;verticalAlign=middle;resizable=0;points=[];" parent="_RY1RrGFD_Ku-RANkwng-12" vertex="1" connectable="0">
          <mxGeometry x="0.0433" relative="1" as="geometry">
            <mxPoint x="-5" y="-9" as="offset" />
          </mxGeometry>
        </mxCell>
        <mxCell id="_RY1RrGFD_Ku-RANkwng-14" value="REGIONS" style="shape=table;startSize=30;container=1;collapsible=0;childLayout=tableLayout;fixedRows=1;rowLines=0;fontStyle=1;align=center;pointerEvents=1;" parent="1" vertex="1">
          <mxGeometry x="960" y="-480" width="180" height="150" as="geometry" />
        </mxCell>
        <mxCell id="_RY1RrGFD_Ku-RANkwng-15" value="" style="shape=partialRectangle;html=1;whiteSpace=wrap;collapsible=0;dropTarget=0;pointerEvents=1;fillColor=none;top=0;left=0;bottom=1;right=0;points=[[0,0.5],[1,0.5]];portConstraint=eastwest;" parent="_RY1RrGFD_Ku-RANkwng-14" vertex="1">
          <mxGeometry y="30" width="180" height="30" as="geometry" />
        </mxCell>
        <mxCell id="_RY1RrGFD_Ku-RANkwng-16" value="PK" style="shape=partialRectangle;html=1;whiteSpace=wrap;connectable=0;fillColor=none;top=0;left=0;bottom=0;right=0;overflow=hidden;pointerEvents=1;" parent="_RY1RrGFD_Ku-RANkwng-15" vertex="1">
          <mxGeometry width="40" height="30" as="geometry" />
        </mxCell>
        <mxCell id="_RY1RrGFD_Ku-RANkwng-17" value="REGION_ID" style="shape=partialRectangle;html=1;whiteSpace=wrap;connectable=0;fillColor=none;top=0;left=0;bottom=0;right=0;align=left;spacingLeft=6;overflow=hidden;pointerEvents=1;" parent="_RY1RrGFD_Ku-RANkwng-15" vertex="1">
          <mxGeometry x="40" width="140" height="30" as="geometry" />
        </mxCell>
        <mxCell id="_RY1RrGFD_Ku-RANkwng-18" value="" style="shape=partialRectangle;html=1;whiteSpace=wrap;collapsible=0;dropTarget=0;pointerEvents=1;fillColor=none;top=0;left=0;bottom=0;right=0;points=[[0,0.5],[1,0.5]];portConstraint=eastwest;" parent="_RY1RrGFD_Ku-RANkwng-14" vertex="1">
          <mxGeometry y="60" width="180" height="30" as="geometry" />
        </mxCell>
        <mxCell id="_RY1RrGFD_Ku-RANkwng-19" value="" style="shape=partialRectangle;html=1;whiteSpace=wrap;connectable=0;fillColor=none;top=0;left=0;bottom=0;right=0;overflow=hidden;pointerEvents=1;" parent="_RY1RrGFD_Ku-RANkwng-18" vertex="1">
          <mxGeometry width="40" height="30" as="geometry" />
        </mxCell>
        <mxCell id="_RY1RrGFD_Ku-RANkwng-20" value="REGION_NAME" style="shape=partialRectangle;html=1;whiteSpace=wrap;connectable=0;fillColor=none;top=0;left=0;bottom=0;right=0;align=left;spacingLeft=6;overflow=hidden;pointerEvents=1;" parent="_RY1RrGFD_Ku-RANkwng-18" vertex="1">
          <mxGeometry x="40" width="140" height="30" as="geometry" />
        </mxCell>
        <mxCell id="_RY1RrGFD_Ku-RANkwng-21" value="" style="shape=partialRectangle;html=1;whiteSpace=wrap;collapsible=0;dropTarget=0;pointerEvents=1;fillColor=none;top=0;left=0;bottom=0;right=0;points=[[0,0.5],[1,0.5]];portConstraint=eastwest;" parent="_RY1RrGFD_Ku-RANkwng-14" vertex="1">
          <mxGeometry y="90" width="180" height="30" as="geometry" />
        </mxCell>
        <mxCell id="_RY1RrGFD_Ku-RANkwng-22" value="" style="shape=partialRectangle;html=1;whiteSpace=wrap;connectable=0;fillColor=none;top=0;left=0;bottom=0;right=0;overflow=hidden;pointerEvents=1;" parent="_RY1RrGFD_Ku-RANkwng-21" vertex="1">
          <mxGeometry width="40" height="30" as="geometry" />
        </mxCell>
        <mxCell id="_RY1RrGFD_Ku-RANkwng-23" value="" style="shape=partialRectangle;html=1;whiteSpace=wrap;connectable=0;fillColor=none;top=0;left=0;bottom=0;right=0;align=left;spacingLeft=6;overflow=hidden;pointerEvents=1;" parent="_RY1RrGFD_Ku-RANkwng-21" vertex="1">
          <mxGeometry x="40" width="140" height="30" as="geometry" />
        </mxCell>
        <mxCell id="_RY1RrGFD_Ku-RANkwng-25" value="" style="edgeStyle=entityRelationEdgeStyle;fontSize=12;html=1;endArrow=ERoneToMany;entryX=0;entryY=0.5;entryDx=0;entryDy=0;" parent="1" target="_RY1RrGFD_Ku-RANkwng-15" edge="1">
          <mxGeometry width="100" height="100" relative="1" as="geometry">
            <mxPoint x="700" y="-370" as="sourcePoint" />
            <mxPoint x="890" y="-430" as="targetPoint" />
          </mxGeometry>
        </mxCell>
        <mxCell id="_RY1RrGFD_Ku-RANkwng-26" value="one-to-many&lt;br&gt;MANY COUNTRIES are within ONE REGION&lt;br&gt;ONE REGION contains MANY COUNTRIES" style="edgeLabel;html=1;align=center;verticalAlign=middle;resizable=0;points=[];" parent="_RY1RrGFD_Ku-RANkwng-25" vertex="1" connectable="0">
          <mxGeometry x="0.0177" y="-2" relative="1" as="geometry">
            <mxPoint x="-1" y="1" as="offset" />
          </mxGeometry>
        </mxCell>
        <mxCell id="_RY1RrGFD_Ku-RANkwng-31" value="" style="edgeStyle=entityRelationEdgeStyle;fontSize=12;html=1;endArrow=ERoneToMany;exitX=1;exitY=0.5;exitDx=0;exitDy=0;" parent="1" source="GvnjWUw1k6gbX3_AqA5z-134" edge="1">
          <mxGeometry width="100" height="100" relative="1" as="geometry">
            <mxPoint x="-110" y="200" as="sourcePoint" />
            <mxPoint x="160" y="270" as="targetPoint" />
          </mxGeometry>
        </mxCell>
        <mxCell id="_RY1RrGFD_Ku-RANkwng-32" value="one-to-many&lt;br&gt;A PRODUCT_CATEGORY has MANY PRODUCTS&lt;br&gt;MANY PRODUCTS are in ONE PRODUCT_CATEGORY" style="edgeLabel;html=1;align=center;verticalAlign=middle;resizable=0;points=[];" parent="_RY1RrGFD_Ku-RANkwng-31" vertex="1" connectable="0">
          <mxGeometry x="-0.0371" y="-1" relative="1" as="geometry">
            <mxPoint x="6" as="offset" />
          </mxGeometry>
        </mxCell>
        <mxCell id="Wx5ZMvMByAFIEjgEb2kG-1" value="" style="edgeStyle=entityRelationEdgeStyle;fontSize=12;html=1;endArrow=ERmandOne;startArrow=ERmandOne;entryX=1;entryY=0.5;entryDx=0;entryDy=0;exitX=1;exitY=0.5;exitDx=0;exitDy=0;" edge="1" parent="1" source="GvnjWUw1k6gbX3_AqA5z-151" target="GvnjWUw1k6gbX3_AqA5z-298">
          <mxGeometry width="100" height="100" relative="1" as="geometry">
            <mxPoint x="340" y="10" as="sourcePoint" />
            <mxPoint x="440" y="-90" as="targetPoint" />
          </mxGeometry>
        </mxCell>
        <mxCell id="Wx5ZMvMByAFIEjgEb2kG-2" value="one-to-one&lt;br&gt;ONE PRODUCT has ONE INVENTORY&lt;br&gt;A INVENTORY contains ONE PRODUCT" style="edgeLabel;html=1;align=center;verticalAlign=middle;resizable=0;points=[];" vertex="1" connectable="0" parent="Wx5ZMvMByAFIEjgEb2kG-1">
          <mxGeometry x="0.04" y="-1" relative="1" as="geometry">
            <mxPoint x="79" y="1" as="offset" />
          </mxGeometry>
        </mxCell>
        <mxCell id="Wx5ZMvMByAFIEjgEb2kG-3" value="FK" style="shape=partialRectangle;html=1;whiteSpace=wrap;connectable=0;fillColor=none;top=0;left=0;bottom=0;right=0;overflow=hidden;pointerEvents=1;" vertex="1" parent="1">
          <mxGeometry x="160" y="-90" width="40" height="30" as="geometry" />
        </mxCell>
        <mxCell id="Wx5ZMvMByAFIEjgEb2kG-4" value="" style="edgeStyle=orthogonalEdgeStyle;fontSize=12;html=1;endArrow=ERoneToMany;exitX=0;exitY=0.5;exitDx=0;exitDy=0;" edge="1" parent="1" source="GvnjWUw1k6gbX3_AqA5z-82">
          <mxGeometry width="100" height="100" relative="1" as="geometry">
            <mxPoint x="-180" y="-150" as="sourcePoint" />
            <mxPoint x="160" y="-70" as="targetPoint" />
            <Array as="points">
              <mxPoint x="-370" y="-435" />
              <mxPoint x="-370" y="-70" />
            </Array>
          </mxGeometry>
        </mxCell>
        <mxCell id="Wx5ZMvMByAFIEjgEb2kG-5" value="one-to-many&lt;br&gt;ONE WAREHOUSE contains MANY INVENTORIES&lt;br&gt;MANY INVENTORIES are within ONE WAREHOUSE" style="edgeLabel;html=1;align=center;verticalAlign=middle;resizable=0;points=[];" vertex="1" connectable="0" parent="Wx5ZMvMByAFIEjgEb2kG-4">
          <mxGeometry x="-0.2695" y="-3" relative="1" as="geometry">
            <mxPoint as="offset" />
          </mxGeometry>
        </mxCell>
        <mxCell id="Wx5ZMvMByAFIEjgEb2kG-8" value="" style="edgeStyle=entityRelationEdgeStyle;fontSize=12;html=1;endArrow=ERmany;startArrow=ERmany;exitX=1.006;exitY=-0.133;exitDx=0;exitDy=0;exitPerimeter=0;" edge="1" parent="1" source="GvnjWUw1k6gbX3_AqA5z-154">
          <mxGeometry width="100" height="100" relative="1" as="geometry">
            <mxPoint x="410" y="220" as="sourcePoint" />
            <mxPoint x="610" y="180" as="targetPoint" />
          </mxGeometry>
        </mxCell>
        <mxCell id="Wx5ZMvMByAFIEjgEb2kG-9" value="many-to-many&lt;br&gt;MANY PRODUCTS stored in MANY ORDER ITEMS&lt;br&gt;MANY ORDER ITEMS contain MANY PRODUCTS" style="edgeLabel;html=1;align=center;verticalAlign=middle;resizable=0;points=[];" vertex="1" connectable="0" parent="Wx5ZMvMByAFIEjgEb2kG-8">
          <mxGeometry x="-0.0385" y="1" relative="1" as="geometry">
            <mxPoint y="9" as="offset" />
          </mxGeometry>
        </mxCell>
        <mxCell id="Wx5ZMvMByAFIEjgEb2kG-13" value="" style="edgeStyle=entityRelationEdgeStyle;fontSize=12;html=1;endArrow=ERmany;startArrow=ERmany;exitX=1;exitY=0.5;exitDx=0;exitDy=0;entryX=0;entryY=0.5;entryDx=0;entryDy=0;" edge="1" parent="1" source="GvnjWUw1k6gbX3_AqA5z-260" target="GvnjWUw1k6gbX3_AqA5z-244">
          <mxGeometry width="100" height="100" relative="1" as="geometry">
            <mxPoint x="880" y="80" as="sourcePoint" />
            <mxPoint x="980" y="-20" as="targetPoint" />
          </mxGeometry>
        </mxCell>
        <mxCell id="Wx5ZMvMByAFIEjgEb2kG-14" value="many-to-many&lt;br&gt;MANY ORDER ITEMS are listed in MANY ORDERS&lt;br&gt;MANY ORDERS contain MANY ORDER ITEMS" style="edgeLabel;html=1;align=center;verticalAlign=middle;resizable=0;points=[];" vertex="1" connectable="0" parent="Wx5ZMvMByAFIEjgEb2kG-13">
          <mxGeometry x="0.0343" relative="1" as="geometry">
            <mxPoint x="-5" as="offset" />
          </mxGeometry>
        </mxCell>
        <mxCell id="Wx5ZMvMByAFIEjgEb2kG-15" value="" style="edgeStyle=entityRelationEdgeStyle;fontSize=12;html=1;endArrow=ERmandOne;startArrow=ERmandOne;exitX=1;exitY=0.5;exitDx=0;exitDy=0;entryX=0;entryY=0.5;entryDx=0;entryDy=0;" edge="1" parent="1" source="GvnjWUw1k6gbX3_AqA5z-247" target="GvnjWUw1k6gbX3_AqA5z-198">
          <mxGeometry width="100" height="100" relative="1" as="geometry">
            <mxPoint x="1350" y="170" as="sourcePoint" />
            <mxPoint x="1450" y="70" as="targetPoint" />
          </mxGeometry>
        </mxCell>
        <mxCell id="Wx5ZMvMByAFIEjgEb2kG-16" value="one-to-one&lt;br&gt;ONE CUSTOMER makes ONE ORDER&lt;br&gt;ONE ORDER made by ONE CUSTOMER" style="edgeLabel;html=1;align=center;verticalAlign=middle;resizable=0;points=[];" vertex="1" connectable="0" parent="Wx5ZMvMByAFIEjgEb2kG-15">
          <mxGeometry x="-0.026" y="-1" relative="1" as="geometry">
            <mxPoint x="-1" as="offset" />
          </mxGeometry>
        </mxCell>
        <mxCell id="Wx5ZMvMByAFIEjgEb2kG-18" value="" style="edgeStyle=entityRelationEdgeStyle;fontSize=12;html=1;endArrow=ERmandOne;startArrow=ERmandOne;exitX=1;exitY=0.5;exitDx=0;exitDy=0;" edge="1" parent="1" source="GvnjWUw1k6gbX3_AqA5z-198">
          <mxGeometry width="100" height="100" relative="1" as="geometry">
            <mxPoint x="1750" y="230" as="sourcePoint" />
            <mxPoint x="1970" y="270" as="targetPoint" />
          </mxGeometry>
        </mxCell>
        <mxCell id="Wx5ZMvMByAFIEjgEb2kG-19" value="one-to-one&lt;br&gt;ONE CUSTOMER has ONE CONTACT&lt;br&gt;ONE CONTACT from ONE CUSTOMER" style="edgeLabel;html=1;align=center;verticalAlign=middle;resizable=0;points=[];" vertex="1" connectable="0" parent="Wx5ZMvMByAFIEjgEb2kG-18">
          <mxGeometry x="-0.0266" y="3" relative="1" as="geometry">
            <mxPoint as="offset" />
          </mxGeometry>
        </mxCell>
        <mxCell id="Wx5ZMvMByAFIEjgEb2kG-20" value="FK" style="shape=partialRectangle;html=1;whiteSpace=wrap;connectable=0;fillColor=none;top=0;left=0;bottom=0;right=0;overflow=hidden;pointerEvents=1;" vertex="1" parent="1">
          <mxGeometry x="-340" y="520" width="40" height="30" as="geometry" />
        </mxCell>
        <mxCell id="Wx5ZMvMByAFIEjgEb2kG-21" value="FK" style="shape=partialRectangle;html=1;whiteSpace=wrap;connectable=0;fillColor=none;top=0;left=0;bottom=0;right=0;overflow=hidden;pointerEvents=1;" vertex="1" parent="1">
          <mxGeometry x="1070" y="190" width="40" height="30" as="geometry" />
        </mxCell>
        <UserObject label="&lt;b&gt;PRIMARY KEY (PK)&lt;br&gt;FOREIGN KEY (FK)&lt;/b&gt;" treeRoot="1" id="Wx5ZMvMByAFIEjgEb2kG-22">
          <mxCell style="whiteSpace=wrap;html=1;align=center;treeFolding=1;treeMoving=1;newEdgeStyle={&quot;edgeStyle&quot;:&quot;elbowEdgeStyle&quot;,&quot;startArrow&quot;:&quot;none&quot;,&quot;endArrow&quot;:&quot;none&quot;};" vertex="1" parent="1">
            <mxGeometry x="-560" y="-620" width="120" height="60" as="geometry" />
          </mxCell>
        </UserObject>
      </root>
    </mxGraphModel>
  </diagram>
</mxfile>
